<svg width="271" height="67" viewBox="0 0 271 67" fill="none" xmlns="http://www.w3.org/2000/svg">
    <g clip-path="url(#clip0_2_3)">
    <path d="M57.44 23.15C57.44 32.293 53.7825 51.2739 32.0389 50.5791C14.1173 49.8476 10.1855 27.6118 17.153 18.2859C21.2159 13.2306 27.0848 9.95211 33.5201 9.14293C28.6748 8.38798 23.7156 9.24229 19.4023 11.575C13.9161 14.4825 10.2586 21.6506 10.2586 21.6506C11.237 18.1674 12.9035 14.9155 15.1596 12.087C17.5845 9.59373 20.5239 7.65923 23.773 6.41832C21.4212 6.66178 19.1307 7.31793 17.0067 8.35663C14.9839 9.27164 13.2094 10.6573 11.8314 12.3978C14.0241 8.81338 17.1719 5.91048 20.922 4.01457C24.6721 2.11867 28.8762 1.30471 33.063 1.66395C37.886 2.22804 42.5518 3.73142 46.7967 6.08917C41.6764 2.11596 35.3734 -0.0291164 28.8923 -0.00417954C22.4111 0.0207573 16.1248 2.21427 11.0353 6.22676C5.94569 10.2393 2.34579 15.8398 0.809292 22.1358C-0.727204 28.4318 -0.111867 35.0609 2.55723 40.9666C5.22634 46.8722 9.79558 51.7146 15.5367 54.7219C21.2779 57.7292 27.8606 58.7283 34.2356 57.56C40.6106 56.3918 46.4111 53.1234 50.7127 48.2757C55.0142 43.4281 57.5691 37.2802 57.9703 30.8119C58.1276 28.2457 57.9493 25.67 57.44 23.15Z" fill="#A8C027"/>
    <path d="M33.5577 43.8862C33.5577 34.7432 37.2152 15.7623 58.9588 16.4572C76.8621 17.1155 80.7939 39.333 73.8447 48.6223C69.7598 53.6983 63.8543 56.9789 57.3861 57.7653C62.2255 58.5203 67.1789 57.6659 71.4856 55.3333C76.9718 52.4258 80.6293 45.2577 80.6293 45.2577C79.6936 48.7472 78.0641 52.0123 75.838 54.8579C73.3834 57.3581 70.4127 59.2926 67.1332 60.5265C69.4828 60.2714 71.7713 59.6158 73.8996 58.5882C75.9558 57.6863 77.763 56.2997 79.1663 54.547C76.9691 58.1315 73.8177 61.0339 70.0649 62.9296C66.312 64.8252 62.1056 65.6394 57.9164 65.2809C53.0946 64.7113 48.4299 63.2082 44.1826 60.8557C49.5786 65.0426 56.2763 67.1965 63.1014 66.9398C69.9266 66.6831 76.4436 64.0322 81.5097 59.4518C86.5758 54.8714 89.8678 48.654 90.8084 41.8895C91.7489 35.1251 90.2781 28.2455 86.6537 22.4569C83.0294 16.6683 77.4828 12.3402 70.9865 10.2315C64.4903 8.12274 57.459 8.36796 51.1255 10.9242C44.7919 13.4803 39.5604 18.1843 36.3482 24.2114C33.136 30.2384 32.1481 37.2038 33.5577 43.8862Z" fill="#6B6C6E"/>
    <path d="M106.688 38.7297V36.7182H109.285V38.7297C109.28 39.1249 109.359 39.5167 109.517 39.8791C109.674 40.2416 109.907 40.5665 110.199 40.8326C110.483 41.1201 110.822 41.3476 111.196 41.5015C111.57 41.6554 111.971 41.7326 112.375 41.7286C113.241 41.7427 114.081 41.4366 114.734 40.8692C115.057 40.6146 115.317 40.2894 115.495 39.9185C115.672 39.5476 115.762 39.1409 115.758 38.7297V23.7717H118.336V38.7846C118.338 39.5075 118.174 40.2212 117.857 40.871C117.54 41.5208 117.079 42.0894 116.508 42.5332C115.347 43.5214 113.863 44.0486 112.339 44.0144C110.87 44.04 109.448 43.4961 108.371 42.4966C107.824 42.0363 107.389 41.4583 107.098 40.806C106.806 40.1536 106.666 39.4438 106.688 38.7297Z" fill="#6A6B6D"/>
    <path d="M120.806 23.7717H123.33L127.627 39.2783L131.925 23.7717H134.467L138.764 39.2783L143.098 23.7717H145.494L140.008 43.7766H137.521L133.187 27.7947L128.907 43.7766H126.366L120.806 23.7717Z" fill="#6A6B6D"/>
    <path d="M145.494 43.7218L152.59 23.7717H156.101L163.178 43.7766H160.471L158.277 37.7971H150.395L148.219 43.7766L145.494 43.7218ZM151.181 35.4931H157.491L154.345 26.8438L151.181 35.4931Z" fill="#6A6B6D"/>
    <path d="M160.051 23.7717H162.757L169.578 33.5548L176.491 23.7717H179.216L171.005 35.5479V43.7766H168.244V35.5479L160.051 23.7717Z" fill="#6A6B6D"/>
    <path d="M182.874 40.5402C181.056 38.5462 180.085 35.9229 180.167 33.2258C180.097 30.5306 181.066 27.9114 182.874 25.9114C183.681 24.9649 184.685 24.2062 185.816 23.6882C186.947 23.1702 188.177 22.9055 189.421 22.9125C191.268 22.8856 193.069 23.4922 194.523 24.6314C195.925 25.6553 196.875 27.1823 197.175 28.892H195.858C195.586 27.5499 194.798 26.3681 193.664 25.6005C192.436 24.6963 190.945 24.2208 189.421 24.2474C188.351 24.2408 187.293 24.4738 186.324 24.9295C185.356 25.3851 184.502 26.0518 183.825 26.8805C182.266 28.6357 181.43 30.9158 181.484 33.2624C181.428 35.6093 182.265 37.89 183.825 39.6442C184.502 40.4729 185.356 41.1396 186.324 41.5952C187.293 42.0509 188.351 42.284 189.421 42.2774C190.317 42.2978 191.207 42.1256 192.03 41.7722C192.853 41.4189 193.591 40.8927 194.194 40.2293C195.485 38.8408 196.187 37.005 196.151 35.1093V34.5607H189.421V33.2989H197.175V43.0454H196.151V39.0408C195.68 40.389 194.764 41.5369 193.554 42.2957C192.333 43.1164 190.892 43.5497 189.421 43.5391C188.177 43.5461 186.947 43.2814 185.816 42.7634C184.685 42.2454 183.681 41.4866 182.874 40.5402Z" fill="#6A6B6D"/>
    <path d="M201.307 43.0453V23.5341H210.634C211.279 23.5293 211.918 23.6622 212.507 23.9239C213.097 24.1856 213.624 24.5701 214.053 25.0518C214.518 25.5379 214.882 26.1115 215.124 26.7393C215.366 27.3671 215.48 28.0366 215.462 28.709C215.494 29.854 215.195 30.9841 214.602 31.9639C214.374 32.3746 214.06 32.731 213.681 33.0088C213.302 33.2866 212.868 33.4791 212.408 33.5731C212.871 33.7469 213.289 34.0229 213.631 34.3807C213.973 34.7384 214.23 35.1687 214.383 35.6394C214.911 36.9835 215.166 38.4196 215.132 39.8635C215.096 40.5518 215.096 41.2415 215.132 41.9298C215.135 42.3276 215.223 42.7202 215.388 43.0818H214.072C213.795 42.651 213.649 42.1493 213.651 41.6372L213.541 38.8395C213.58 37.6409 213.248 36.4596 212.59 35.4565C212.368 35.0457 212.042 34.7009 211.643 34.4568C211.245 34.2128 210.79 34.0783 210.323 34.0668H202.624V43.0818L201.307 43.0453ZM210.451 32.8051C210.952 32.8035 211.448 32.6987 211.907 32.4974C212.367 32.2961 212.78 32.0025 213.121 31.6348C213.836 30.8669 214.224 29.8498 214.2 28.8004C214.216 27.7524 213.83 26.738 213.121 25.9661C212.778 25.6017 212.364 25.3115 211.905 25.1134C211.446 24.9152 210.951 24.8134 210.451 24.8141H202.624V32.8051H210.451Z" fill="#6A6B6D"/>
    <path d="M220.948 40.5402C219.279 38.4802 218.438 35.8725 218.588 33.2258C218.451 30.5361 219.289 27.8872 220.948 25.7651C221.748 24.885 222.723 24.1818 223.812 23.7007C224.9 23.2195 226.076 22.9709 227.266 22.9709C228.456 22.9709 229.632 23.2195 230.72 23.7007C231.808 24.1818 232.784 24.885 233.584 25.7651C235.257 27.8807 236.102 30.5327 235.961 33.2258C236.116 35.876 235.267 38.4872 233.584 40.5402C232.775 41.4056 231.797 42.0955 230.71 42.5672C229.623 43.0389 228.451 43.2823 227.266 43.2823C226.081 43.2823 224.909 43.0389 223.822 42.5672C222.735 42.0955 221.757 41.4056 220.948 40.5402ZM232.633 39.6625C234.048 37.8525 234.762 35.5931 234.645 33.299C234.758 30.9491 234.046 28.6336 232.633 26.7526C231.969 25.9796 231.145 25.3592 230.219 24.9339C229.292 24.5086 228.285 24.2884 227.266 24.2884C226.246 24.2884 225.239 24.5086 224.313 24.9339C223.386 25.3592 222.563 25.9796 221.898 26.7526C220.492 28.6361 219.787 30.9513 219.905 33.299C219.783 35.5908 220.491 37.8499 221.898 39.6625C222.574 40.417 223.402 41.0206 224.326 41.4338C225.251 41.847 226.253 42.0606 227.266 42.0606C228.279 42.0606 229.28 41.847 230.205 41.4338C231.13 41.0206 231.957 40.417 232.633 39.6625Z" fill="#6A6B6D"/>
    <path d="M241.649 41.5644C240.979 40.9654 240.446 40.229 240.086 39.4054C239.726 38.5818 239.548 37.6904 239.564 36.7918V23.5344H240.881V36.7918C240.877 37.5387 241.039 38.2772 241.355 38.9539C241.671 39.6306 242.134 40.2287 242.709 40.705C243.857 41.7779 245.381 42.356 246.952 42.3142C247.704 42.3271 248.451 42.1916 249.151 41.9155C249.851 41.6394 250.489 41.228 251.03 40.705C251.57 40.208 251.999 39.6025 252.289 38.9281C252.579 38.2538 252.724 37.5258 252.713 36.7918V23.5344H254.029V36.7918C254.04 37.6897 253.86 38.5797 253.501 39.4026C253.141 40.2255 252.611 40.9624 251.944 41.5644C251.276 42.2172 250.483 42.7285 249.613 43.0678C248.743 43.4072 247.813 43.5675 246.879 43.5393C244.945 43.5837 243.07 42.8757 241.649 41.5644Z" fill="#6A6B6D"/>
    <path d="M257.595 43.0452V23.534H266.427C267.047 23.5303 267.659 23.6685 268.217 23.9379C268.775 24.2073 269.263 24.6008 269.646 25.0883C270.529 26.1005 271.011 27.4019 270.999 28.7455C271.031 30.1588 270.55 31.5358 269.646 32.6222C269.272 33.1228 268.786 33.5291 268.227 33.8086C267.669 34.088 267.052 34.2328 266.427 34.2313H258.912V42.9903L257.595 43.0452ZM266.19 33.0427C266.664 33.0437 267.133 32.9372 267.56 32.7314C267.988 32.5255 268.363 32.2256 268.658 31.8541C269.346 31.0729 269.712 30.0601 269.682 29.0198C269.705 27.9363 269.342 26.8799 268.658 26.0392C268.371 25.6568 267.998 25.347 267.569 25.1343C267.14 24.9216 266.668 24.8119 266.19 24.814H258.875V33.0427H266.19Z" fill="#6A6B6D"/>
    </g>
    <defs>
    <clipPath id="clip0_2_3">
    <rect width="271" height="67" fill="white"/>
    </clipPath>
    </defs>
    </svg>
    