<svg width="46" height="46" viewBox="0 0 46 46" fill="none" xmlns="http://www.w3.org/2000/svg">
<path id="Vector" d="M2.82979 0.651855H42.8517C44.2298 0.651855 45.3267 1.74873 45.3267 3.12686V43.1769C45.3267 44.5269 44.2298 45.6519 42.8517 45.6519H31.3767V28.2144H37.2267L38.0985 21.4362H31.3767V17.105C31.3767 15.1362 31.9392 13.7862 34.7517 13.7862H38.3517V7.71123C37.7329 7.62686 35.5954 7.45811 33.1204 7.45811C27.9173 7.45811 24.3735 10.6081 24.3735 16.43V21.4362H18.4954V28.2144H24.3735V45.6519H2.82979C2.17076 45.6519 1.53831 45.392 1.06968 44.9287C0.601051 44.4653 0.334065 43.8358 0.32666 43.1769V3.12686C0.32666 1.74873 1.45166 0.651855 2.82979 0.651855Z" fill="#DCDCDC"/>
</svg>
