<svg width="45" height="46" viewBox="0 0 45 46" fill="none" xmlns="http://www.w3.org/2000/svg">
<path id="Vector" d="M0 3.87498C0 2.09467 1.47937 0.651855 3.30469 0.651855H41.6953C43.5206 0.651855 45 2.09467 45 3.87498V42.4287C45 44.209 43.5206 45.6519 41.6953 45.6519H3.30469C1.47937 45.6519 0 44.209 0 42.4287V3.87498ZM13.9022 38.3225V18.0022H7.14937V38.3225H13.9022ZM10.5272 15.2262C12.8813 15.2262 14.3466 13.6681 14.3466 11.7162C14.3044 9.72217 12.8841 8.20623 10.5722 8.20623C8.26031 8.20623 6.75 9.72498 6.75 11.7162C6.75 13.6681 8.21531 15.2262 10.4822 15.2262H10.5272ZM24.3309 38.3225V26.974C24.3309 26.3665 24.3759 25.759 24.5559 25.3259C25.0425 24.1137 26.1534 22.8565 28.0209 22.8565C30.465 22.8565 31.4409 24.7184 31.4409 27.4522V38.3225H38.1937V26.6675C38.1937 20.4237 34.8638 17.5212 30.42 17.5212C26.8369 17.5212 25.2309 19.49 24.3309 20.8765V20.9469H24.2859C24.3009 20.9234 24.3159 20.8999 24.3309 20.8765V18.0022H17.5809C17.6653 19.909 17.5809 38.3225 17.5809 38.3225H24.3309Z" fill="#DCDCDC"/>
</svg>
