<?xml version="1.0" standalone="no"?>
                            <!DOCTYPE svg PUBLIC "-//W3C//DTD SVG 20010904//EN" "http://www.w3.org/TR/2001/REC-SVG-20010904/DTD/svg10.dtd">
                            <svg
                                version="1.0"
                                xmlns="http://www.w3.org/2000/svg"
                                width="100px"
                                height="100px"
                                viewBox="0 0 2160.000000 2160.000000"
                                preserveAspectRatio="xMidYMid meet"
                            >
                                <g
                                    transform="translate(0.000000,2160.000000) scale(0.100000,-0.100000)"
                                    fill="#fff"
                                    stroke="none"
                                >
                                    <path
                                        d="M12035 16201 c-768 -101 -890 -120 -889 -134 1 -12 -2 -13 -16 -5
-15 10 -105 -69 -621 -542 -332 -304 -603 -554 -603 -557 1 -3 582 -589 1292
-1302 l1289 -1297 -1538 -1544 -1538 -1545 602 -602 601 -602 25 22 24 22 -12
-23 c-7 -13 -11 -25 -9 -27 2 -1 521 -9 1153 -17 l1150 -14 967 966 968 965
743 -743 742 -742 588 588 c323 323 587 592 587 599 0 6 5 13 10 15 6 2 92
378 192 836 l181 834 -2484 2484 c-1366 1366 -2491 2484 -2499 2483 -8 -1
-415 -54 -905 -118z m3334 -2435 l2444 -2445 -164 -756 c-90 -416 -166 -760
-169 -765 -3 -4 -20 -5 -39 -2 -28 4 -448 418 -3032 2994 l-2999 2990 -56 105
c-31 57 -53 107 -50 111 7 7 1529 209 1586 211 34 1 132 -96 2479 -2443z
m-1109 -968 l3141 -3132 -521 -520 -522 -521 -1332 1338 -1332 1339 -1529
-1532 c-841 -842 -1534 -1538 -1539 -1547 -7 -12 -116 92 -537 513 -291 291
-529 533 -529 538 0 4 691 701 1536 1549 l1535 1541 -418 420 c-230 232 -812
816 -1293 1298 -481 482 -872 879 -870 882 57 55 1057 966 1062 966 4 0 1421
-1409 3148 -3132z m538 -2756 c1 -4 -425 -434 -947 -956 l-950 -950 -1043 13
c-574 7 -1044 14 -1046 15 -1 2 28 56 65 120 l68 118 1373 1378 1372 1378 553
-555 c303 -305 553 -557 555 -561z"
                                    />
                                    <path
                                        d="M7688 12583 l-967 -967 -740 745 -739 744 -591 -590 c-366 -366 -589
-595 -586 -604 3 -8 0 -11 -9 -8 -11 4 -17 -6 -24 -36 -5 -23 -87 -401 -182
-840 l-174 -798 2480 -2480 c1972 -1972 2484 -2479 2504 -2479 31 0 1793 230
1798 235 2 2 -2 14 -9 27 l-12 23 24 -22 25 -22 607 556 608 556 -1297 1299
-1297 1299 1537 1538 c845 847 1536 1544 1536 1550 0 6 -267 280 -594 609
l-594 597 -26 -24 c-25 -24 -38 -17 -14 7 6 6 9 14 6 17 -4 4 -1922 34 -2243
35 l-60 0 -967 -967z m2282 851 c360 -4 692 -9 736 -13 l81 -6 -66 -116 -66
-116 -1373 -1379 -1373 -1378 -559 559 -560 560 952 953 953 954 310 -6 c171
-3 605 -9 965 -12z m1550 -597 l524 -528 -499 -502 c-275 -276 -968 -971
-1540 -1545 l-1040 -1042 1140 -1143 c627 -628 1209 -1212 1293 -1298 l154
-156 -533 -487 -532 -488 -1001 999 c-551 550 -1966 1961 -3146 3137 l-2144
2137 520 520 520 520 1338 -1338 1337 -1338 1536 1543 c845 848 1539 1541
1542 1540 4 -2 242 -241 531 -531z m-6360 -2020 c536 -535 1887 -1882 3002
-2993 l2026 -2020 56 -103 c55 -100 63 -121 48 -121 -4 0 -367 -47 -807 -105
l-800 -104 -2449 2448 -2449 2449 157 723 c87 398 162 741 167 762 9 33 13 37
42 37 29 0 121 -89 1007 -973z"
                                    />
                                </g>
                            </svg>