<svg width="46" height="46" viewBox="0 0 46 46" fill="none" xmlns="http://www.w3.org/2000/svg">
<path id="Vector" d="M40.8324 0.651855H5.47524C2.81341 0.651855 0.653809 2.81145 0.653809 5.47328V40.8304C0.653809 43.4923 2.81341 45.6519 5.47524 45.6519H40.8324C43.4942 45.6519 45.6538 43.4923 45.6538 40.8304V5.47328C45.6538 2.81145 43.4942 0.651855 40.8324 0.651855ZM35.9205 16.6027C35.9406 16.884 35.9406 17.1753 35.9406 17.4565C35.9406 26.1652 29.3112 36.1998 17.1973 36.1998C13.4607 36.1998 9.99533 35.115 7.08238 33.2467C7.61475 33.307 8.12702 33.3271 8.66943 33.3271C11.7531 33.3271 14.5857 32.2824 16.8458 30.5146C13.9529 30.4543 11.5221 28.5559 10.6884 25.9443C11.7029 26.0949 12.617 26.0949 13.6616 25.8237C10.6482 25.211 8.38818 22.5592 8.38818 19.355V19.2746C9.26207 19.7668 10.2866 20.0681 11.3614 20.1083C10.4578 19.5073 9.71707 18.6919 9.20529 17.7349C8.6935 16.778 8.42659 15.7092 8.42836 14.624C8.42836 13.3985 8.74979 12.2735 9.32234 11.2992C12.5668 15.2969 17.4384 17.9086 22.9027 18.1898C21.9685 13.7199 25.3134 10.0938 29.3313 10.0938C31.2297 10.0938 32.9373 10.8873 34.1426 12.1731C35.6293 11.8918 37.0556 11.3394 38.3212 10.586C37.829 12.1128 36.7944 13.3985 35.4284 14.2121C36.7543 14.0715 38.04 13.6998 39.2252 13.1876C38.3313 14.5034 37.2063 15.6686 35.9205 16.6027Z" fill="#DCDCDC"/>
</svg>
